<?xml version="1.0" standalone="no"?>
<!DOCTYPE svg PUBLIC "-//W3C//DTD SVG 20010904//EN"
 "http://www.w3.org/TR/2001/REC-SVG-20010904/DTD/svg10.dtd">
<svg version="1.0" xmlns="http://www.w3.org/2000/svg"
 width="5001.000000pt" height="5001.000000pt" viewBox="0 0 5001.000000 5001.000000"
 preserveAspectRatio="xMidYMid meet">

<g transform="translate(0.000000,5001.000000) scale(0.100000,-0.100000)"
fill="#000000" stroke="none">
<path d="M0 25005 l0 -25005 25005 0 25005 0 0 25005 0 25005 -25005 0 -25005
0 0 -25005z m1474 21616 c9 -14 -4 -41 -19 -41 -18 0 -28 17 -21 35 6 17 32
20 40 6z m15150 0 c9 -14 -4 -41 -19 -41 -18 0 -26 15 -19 34 7 17 29 21 38 7z
m15148 3 c10 -9 -4 -44 -18 -44 -17 0 -25 15 -18 34 6 16 25 21 36 10z m15159
-7 c-1 -4 -1 -14 -1 -22 0 -17 -26 -20 -35 -5 -8 13 14 42 27 38 5 -2 9 -7 9
-11z m-32748 -1479 c7 -26 -10 -61 -26 -55 -7 2 -13 20 -15 40 -3 31 0 37 16
37 12 0 22 -9 25 -22z m-5123 -4175 c0 -12 -22 -43 -31 -43 -16 0 -22 29 -9
45 10 12 40 11 40 -2z m15150 -1 c0 -5 -6 -17 -14 -28 -11 -15 -17 -16 -27 -7
-16 16 -4 43 21 43 11 0 20 -4 20 -8z m15144 -1 c3 -4 -1 -17 -9 -27 -10 -15
-16 -16 -26 -7 -6 6 -9 19 -6 27 7 17 32 22 41 7z m-34540 -71 c10 -53 -24
-91 -52 -57 -6 6 -13 28 -17 48 -6 30 -3 39 11 47 26 15 50 -2 58 -38z m1786
-1394 c18 -23 8 -61 -17 -64 -20 -3 -23 1 -23 31 0 47 16 61 40 33z m15155 -6
c3 -5 3 -21 -1 -35 -9 -37 -38 -29 -42 13 -3 26 0 32 17 32 11 0 22 -4 26 -10z
m-5605 -3439 c880 -51 1547 -125 2310 -257 759 -130 1621 -342 2322 -570 117
-38 174 -52 176 -44 11 31 118 150 183 202 144 115 304 170 493 170 167 0 296
-37 430 -122 l61 -39 10 29 c15 43 31 56 50 40 19 -16 20 -75 1 -92 -11 -11
-5 -22 36 -68 179 -200 252 -451 204 -702 -32 -163 -94 -284 -210 -405 -32
-35 -56 -63 -51 -63 4 0 2 -6 -5 -14 -6 -8 -18 -12 -26 -9 -7 3 -17 -2 -20
-11 -3 -9 -10 -13 -15 -10 -5 3 -9 -2 -9 -10 0 -9 -5 -15 -11 -14 -6 2 -14 -3
-17 -11 -3 -9 0 -12 10 -9 8 4 15 0 15 -7 0 -7 -7 -12 -16 -11 -9 1 -15 -4
-14 -11 2 -8 -4 -10 -13 -6 -11 4 -23 -2 -34 -18 -12 -15 -37 -27 -69 -35 -50
-11 -74 -2 -26 10 14 4 25 10 25 15 0 11 -48 5 -64 -8 -7 -6 -16 -8 -19 -4 -4
3 -13 0 -21 -6 -8 -7 -20 -10 -26 -6 -5 3 -10 2 -10 -3 0 -6 -15 -8 -34 -7
-22 3 -39 -2 -47 -11 -16 -19 -6 -28 18 -15 11 5 38 11 62 14 23 2 46 8 49 13
11 14 34 16 30 2 -3 -7 -9 -13 -14 -14 -5 0 -16 -4 -24 -7 -8 -4 -26 -9 -40
-11 -14 -3 -25 -5 -25 -6 0 -1 -18 -3 -40 -4 -22 -1 -46 -6 -54 -10 -8 -5 -17
-3 -22 5 -6 10 -2 15 16 17 14 2 23 8 20 13 -11 16 -40 10 -54 -12 -10 -17
-15 -19 -21 -8 -7 11 -10 11 -15 -2 -4 -11 -15 -14 -37 -11 -26 4 -30 2 -25
-12 4 -9 2 -16 -3 -16 -5 0 -12 9 -15 20 -4 11 -11 18 -16 15 -5 -4 -14 -3
-20 1 -8 4 -7 9 2 15 11 7 10 9 -3 9 -10 0 -18 -4 -18 -9 0 -4 -11 -6 -25 -3
-14 2 -22 8 -20 12 3 5 0 12 -6 16 -8 4 -9 3 -5 -4 4 -7 1 -12 -9 -12 -10 0
-13 5 -9 13 5 8 2 7 -9 -2 -22 -17 -34 -7 -17 14 11 13 10 14 -5 9 -13 -5 -16
-4 -11 4 5 8 2 10 -9 5 -13 -5 -14 -7 -3 -14 8 -5 9 -9 2 -9 -6 0 -17 7 -24
15 -7 8 -16 12 -21 9 -5 -3 -25 4 -44 16 -19 12 -38 19 -43 16 -4 -2 -9 4 -9
15 -3 30 -23 50 -43 44 -12 -4 -25 3 -38 20 -12 14 -23 26 -27 25 -3 0 -12 6
-20 14 -13 12 -13 15 1 20 10 4 13 2 8 -6 -5 -7 -3 -8 5 -3 9 5 4 17 -20 41
-18 19 -39 34 -46 34 -7 0 -22 13 -34 30 -12 16 -26 27 -30 25 -9 -6 -6 22 4
31 11 11 -2 24 -18 17 -13 -5 -21 19 -16 50 0 4 -4 7 -9 7 -6 0 -10 9 -10 20
0 10 -8 24 -17 29 -13 7 -14 10 -4 11 11 0 11 3 -2 18 -9 9 -17 28 -19 42 -2
14 -6 30 -10 35 -18 28 -30 145 -26 244 l4 109 -37 16 c-223 99 -1079 339
-1669 470 -1644 364 -3502 493 -5310 371 -1063 -72 -2181 -248 -3185 -502
-227 -57 -665 -180 -815 -229 -47 -15 -88 -27 -92 -26 -5 1 -8 -2 -8 -6 0 -5
-19 -15 -42 -21 l-42 -13 24 -15 c14 -8 17 -12 8 -9 -12 4 -15 1 -11 -11 5
-12 3 -14 -8 -8 -11 7 -12 6 -2 -7 7 -8 9 -19 5 -23 -4 -5 -2 -5 5 -1 6 3 15
1 19 -6 4 -7 4 -10 -1 -6 -14 13 -37 -13 -25 -27 6 -7 10 -17 9 -21 -5 -28 3
-35 35 -33 19 2 38 0 42 -4 14 -14 13 -37 -2 -37 -8 0 -14 -4 -14 -8 0 -5 -21
-22 -47 -39 -131 -83 -164 -103 -172 -103 -4 0 -20 -9 -35 -21 -14 -11 -26
-17 -26 -13 0 4 -8 1 -17 -7 -10 -8 -29 -20 -43 -26 -14 -7 -45 -21 -70 -33
-25 -11 -52 -25 -60 -30 -14 -9 -128 -62 -140 -64 -12 -3 -107 -39 -135 -51
-39 -17 -77 -32 -90 -35 -5 -1 -27 -11 -47 -21 -21 -10 -43 -19 -50 -19 -7 0
-24 -6 -38 -13 -14 -7 -52 -21 -85 -31 -33 -9 -82 -26 -109 -37 -27 -10 -59
-19 -72 -19 -12 0 -26 -4 -29 -10 -3 -5 -23 -10 -44 -10 -20 0 -41 -4 -46 -9
-6 -6 -21 -12 -35 -15 -14 -3 -91 -21 -171 -40 -185 -44 -200 -45 -221 -23
-10 9 -27 17 -38 17 -11 0 -20 5 -20 11 0 5 4 7 10 4 6 -3 10 1 10 10 0 13 -4
14 -21 5 -15 -8 -24 -8 -34 0 -10 8 -19 8 -34 1 -14 -8 -20 -8 -24 2 -4 14
-39 16 -49 2 -4 -6 -8 -2 -8 8 0 10 -5 15 -10 12 -6 -4 -8 -10 -6 -14 3 -4 -9
-5 -27 -2 -19 3 -25 6 -14 9 9 2 17 8 17 13 0 11 11 17 -220 -109 -166 -90
-405 -231 -572 -338 l-78 -49 3 -5000 c2 -4670 3 -5000 19 -4997 9 1 20 -3 24
-9 4 -7 3 -9 -3 -6 -6 4 -13 0 -16 -8 -5 -11 -1 -12 17 -5 25 9 36 5 36 -14 0
-6 -4 -5 -9 3 -11 17 -23 -1 -15 -23 7 -19 24 -21 24 -3 1 6 7 1 15 -13 16
-31 55 -36 55 -8 0 12 -4 16 -12 12 -7 -5 -8 -3 -3 5 9 15 22 3 27 -24 2 -14
-2 -20 -14 -19 -10 1 -15 -2 -12 -7 3 -5 14 -9 26 -9 16 0 19 -5 16 -25 -4
-17 -1 -25 8 -25 8 0 14 -5 14 -11 0 -5 -4 -8 -8 -5 -5 3 -9 -1 -9 -9 0 -8 4
-12 8 -9 4 2 10 -8 12 -23 3 -23 4 -21 6 10 0 20 5 37 9 37 4 0 7 -21 6 -47
-1 -27 4 -60 11 -74 8 -18 9 -32 2 -44 -7 -13 -6 -16 2 -11 8 6 10 0 5 -20 -5
-21 -4 -25 6 -19 10 6 11 2 6 -19 -4 -15 -3 -25 2 -22 5 3 9 -16 9 -42 0 -58
12 -195 20 -242 4 -19 5 -41 4 -49 -1 -7 2 -10 7 -7 10 6 9 -45 -2 -62 -3 -6
-2 -13 2 -16 5 -3 12 -67 16 -143 7 -144 11 -209 22 -383 18 -278 18 -1465 0
-1705 -3 -27 -7 -106 -10 -175 -3 -69 -8 -150 -11 -180 -2 -30 -7 -100 -10
-154 -4 -55 -8 -103 -11 -107 -7 -12 -14 -108 -15 -208 0 -61 -4 -90 -10 -80
-6 9 -9 -10 -10 -56 -1 -38 -3 -74 -4 -80 -1 -5 -5 -34 -9 -62 -4 -29 -11 -55
-15 -57 -4 -3 -8 -19 -9 -37 -1 -18 -8 -39 -15 -48 -9 -12 -9 -13 0 -7 10 5
12 -4 11 -34 -1 -40 -2 -41 -14 -18 -11 18 -13 19 -14 6 0 -25 -20 -22 -20 3
0 12 -4 17 -11 14 -6 -4 -8 -13 -5 -21 3 -7 1 -16 -4 -19 -6 -4 -10 6 -11 22
-1 26 -2 26 -9 -7 -5 -19 -13 -36 -19 -38 -6 -2 -11 -10 -11 -18 0 -8 -9 -22
-19 -31 -11 -9 -17 -21 -14 -27 4 -6 0 -5 -9 2 -14 11 -17 8 -22 -23 -4 -19
-11 -35 -16 -35 -5 0 -6 -7 -3 -17 4 -11 3 -14 -5 -9 -9 5 -12 -623 -12 -2648
l0 -2655 138 83 c342 206 749 416 1162 598 1394 613 3195 1045 5055 1213 94 8
193 17 220 20 28 2 91 7 140 10 50 3 144 10 210 15 66 5 190 12 275 16 85 3
171 8 190 9 19 2 215 9 435 15 353 11 1126 8 1290 -5 28 -2 124 -6 215 -10 91
-3 179 -8 195 -10 17 -2 82 -7 145 -10 271 -14 798 -63 1175 -111 744 -93
1584 -256 2288 -444 838 -223 1641 -511 2315 -831 l122 -58 0 -68 c0 -138 51
-245 175 -368 347 -347 1107 -588 2009 -636 193 -10 652 -7 766 6 25 2 92 9
150 15 510 51 963 167 1305 334 256 125 422 253 515 397 51 80 70 143 70 239
l0 77 198 91 c952 436 1961 763 3098 1001 141 30 465 91 579 110 33 5 128 21
210 36 334 58 955 134 1385 170 202 17 266 22 350 30 30 3 107 7 170 10 63 3
148 7 188 10 45 4 72 2 72 -5 0 -5 -3 -9 -7 -9 -19 3 -27 -2 -15 -10 8 -4 16
-26 19 -48 6 -43 -11 -60 -48 -48 -13 4 -20 -3 -30 -32 -7 -21 -14 -48 -15
-60 -1 -13 -6 -32 -9 -43 -6 -18 -3 -20 17 -15 51 12 165 21 211 15 6 -1 109
2 227 6 208 8 871 6 879 -2 2 -2 -144 -4 -325 -4 -961 0 -1975 -79 -2909 -226
-1395 -220 -2835 -637 -3867 -1121 -96 -45 -97 -46 -103 -87 -11 -63 -62 -178
-116 -261 -295 -452 -1201 -800 -2249 -863 -160 -9 -592 -9 -780 0 -520 27
-1065 138 -1475 300 -338 134 -631 333 -781 531 -57 75 -117 201 -135 280 -15
69 6 55 -267 173 -1365 593 -2893 978 -4622 1163 -727 78 -1363 106 -2250 98
-611 -6 -777 -11 -1245 -42 -1674 -112 -3315 -431 -4650 -904 -491 -173 -876
-335 -1312 -550 -387 -191 -626 -330 -1005 -583 -130 -86 -240 -154 -243 -149
-2 5 -6 1282 -7 2837 -2 3021 -4 3244 -18 3244 -5 0 -7 -7 -4 -15 4 -8 1 -15
-5 -15 -6 0 -11 4 -11 9 0 4 -13 24 -30 42 -16 19 -35 48 -42 66 -8 22 -16 29
-27 25 -14 -5 -14 -3 -2 11 7 9 17 15 21 12 4 -3 7 7 8 22 0 21 -2 23 -10 10
-10 -18 -49 -43 -47 -30 1 4 0 13 -1 18 -1 6 -3 25 -4 44 0 19 -7 36 -14 39
-9 3 -11 -4 -7 -25 5 -21 4 -24 -4 -13 -16 22 -13 50 4 50 8 0 15 5 15 10 0 6
-7 10 -15 10 -15 0 -17 11 -19 156 0 47 -4 60 -14 57 -10 -4 -10 0 0 22 9 21
9 28 -1 34 -7 5 -12 26 -11 52 1 62 0 81 -4 104 -7 33 -8 32 -16 -10 -5 -27
-8 0 -8 85 -2 272 -7 438 -14 433 -7 -4 3 32 13 48 2 3 -1 13 -8 21 -9 10 -14
84 -18 239 -6 273 -8 1005 -3 1016 3 4 5 38 7 76 1 49 -2 67 -11 67 -9 0 -10
2 -2 8 10 6 25 129 23 187 -1 32 -1 44 5 172 4 76 2 124 -4 128 -17 11 -11 54
10 67 27 17 25 32 -2 17 -21 -11 -22 -11 -9 5 9 11 14 37 12 77 -1 40 3 66 13
81 18 26 22 73 5 62 -7 -4 -7 1 1 16 7 12 13 46 13 75 1 29 5 51 9 49 4 -3 4
11 1 29 -3 20 0 45 8 58 7 13 11 49 10 79 -1 31 2 50 7 43 5 -9 11 -7 20 7 12
20 6 25 -20 21 -4 0 -5 6 -1 14 5 14 39 39 55 40 12 0 21 15 9 15 -9 0 -9 5
-1 21 7 11 9 28 5 36 -3 9 0 20 7 25 20 12 28 10 22 -7 -4 -8 -1 -15 5 -15 15
0 14 23 -1 38 -9 9 -9 12 0 12 7 0 12 10 12 23 0 12 9 30 20 40 12 10 20 29
20 47 0 39 29 42 32 3 11 -164 15 1246 17 5422 l1 4950 193 126 c105 70 262
169 347 220 85 51 161 99 168 106 7 7 19 13 25 13 7 1 -1 8 -16 16 -22 12 -27
20 -22 37 5 20 5 21 -6 3 -9 -15 -13 -16 -20 -5 -7 11 -9 11 -9 1 0 -10 -3
-10 -14 0 -13 11 -13 15 2 27 16 13 16 13 0 8 -10 -4 -21 0 -26 10 -8 14 -10
14 -15 -1 -4 -9 -2 -16 3 -16 6 0 10 -5 10 -10 0 -6 -8 -5 -20 2 -11 7 -20 16
-20 21 0 4 4 5 10 2 6 -3 7 1 3 10 -3 9 -9 13 -12 8 -9 -11 -51 -15 -51 -3 0
5 10 16 22 24 12 9 19 16 15 16 -16 0 20 49 65 88 26 22 44 43 40 48 -4 4 -2
4 5 1 6 -4 34 11 62 33 28 22 65 48 83 58 18 10 56 31 83 47 28 15 61 35 75
44 50 32 65 41 90 52 14 6 70 32 125 59 55 27 103 49 108 49 4 1 24 10 44 21
21 11 41 20 46 20 4 0 29 9 54 21 25 11 53 21 64 22 10 1 16 3 13 6 -9 10 460
160 611 195 45 11 97 19 122 18 13 0 21 4 18 8 -3 5 5 6 17 2 12 -3 19 -1 15
4 -3 5 3 10 14 10 10 0 19 -4 19 -9 0 -4 5 -5 10 -2 6 3 10 1 10 -4 0 -6 -4
-11 -9 -11 -5 0 -11 -9 -14 -19 -4 -17 -1 -18 25 -11 22 7 30 5 35 -6 3 -7 15
-14 27 -14 20 1 20 1 3 14 -17 13 -16 14 3 19 12 3 20 0 20 -7 0 -7 7 -13 15
-13 10 0 14 6 10 16 -3 9 4 5 15 -9 16 -20 20 -22 20 -7 0 9 5 17 11 17 6 0 9
-7 5 -15 -3 -8 -1 -15 4 -15 6 0 10 7 10 16 0 13 3 14 14 5 16 -13 37 -11 48
4 5 7 8 6 8 0 0 -6 12 -10 28 -9 15 1 33 -4 41 -10 11 -8 13 -8 7 2 -9 15 8
16 36 1 15 -8 19 -8 14 0 -5 7 2 10 16 9 13 0 109 26 213 59 105 34 232 73
283 89 74 22 92 31 92 46 0 26 30 35 45 15 11 -16 25 -13 171 29 214 61 652
172 908 229 1096 243 2192 383 3426 435 257 11 1504 4 1740 -9z m18046 1 c-3
-3 -24 -5 -46 -4 -28 1 -42 -3 -47 -13 -5 -13 -7 -13 -18 2 -12 16 -11 19 6
23 25 6 112 0 105 -8z m292 -14 c-2 -13 -11 -24 -20 -26 -21 -4 -24 18 -6 36
19 19 30 14 26 -10z m-605 5 c-29 -2 -78 -2 -110 0 -32 2 -8 3 52 3 61 0 87
-1 58 -3z m-210 -10 c5 -8 -154 -6 -162 2 -2 3 32 5 77 5 44 0 83 -3 85 -7z
m-235 -10 c-21 -2 -55 -2 -75 0 -21 2 -4 4 37 4 41 0 58 -2 38 -4z m-160 -10
c-21 -2 -55 -2 -75 0 -21 2 -4 4 37 4 41 0 58 -2 38 -4z m-158 -16 c-24 -9
-37 -9 -42 -2 -12 16 -10 -13 2 -36 9 -17 8 -18 -13 -10 -36 14 -97 11 -97 -4
0 -18 40 -85 50 -85 5 0 14 -16 20 -35 8 -23 18 -35 30 -35 10 0 25 -9 32 -19
14 -20 73 -27 83 -10 3 4 18 4 34 -1 16 -4 31 -7 33 -5 2 2 60 7 128 10 69 3
136 7 150 10 32 6 436 18 640 19 139 1 155 3 158 19 5 23 25 22 46 -2 13 -14
29 -19 56 -18 21 2 36 -1 34 -5 -3 -5 -103 -8 -222 -8 -376 0 -999 -33 -1437
-75 -467 -45 -1112 -127 -1285 -164 -25 -6 -76 -15 -115 -21 -502 -77 -1635
-348 -2050 -490 -49 -17 -94 -32 -100 -34 -5 -1 -21 -8 -35 -14 -14 -5 -34
-13 -44 -16 -18 -6 -15 -20 5 -22 5 -1 12 -2 15 -3 4 0 0 -9 -7 -18 -8 -9 -9
-14 -3 -10 8 5 11 -4 9 -26 -2 -17 -8 -31 -14 -30 -6 2 -11 -4 -11 -13 0 -8 5
-12 10 -9 6 3 10 0 10 -7 0 -9 3 -9 10 2 8 13 10 13 10 -2 0 -9 -5 -20 -10
-23 -8 -5 -7 -12 1 -22 12 -13 32 -13 71 2 9 4 14 -2 14 -14 0 -15 -4 -17 -17
-10 -12 6 -19 4 -23 -7 -3 -8 -2 -12 3 -9 5 3 12 1 16 -5 3 -5 2 -10 -4 -10
-10 0 -120 -48 -196 -85 -26 -13 -27 -15 -5 -10 19 4 17 1 -8 -10 -18 -9 -37
-13 -43 -10 -5 4 -9 2 -9 -3 0 -8 -28 -20 -47 -20 -3 0 -9 -4 -12 -9 -3 -5
-71 -33 -151 -62 -181 -67 -412 -157 -465 -181 -63 -30 -229 -93 -242 -93 -7
0 -13 -4 -13 -9 0 -5 -4 -6 -10 -3 -5 3 -32 -1 -60 -9 -27 -8 -50 -13 -50 -10
0 2 -12 -2 -27 -10 -75 -38 -165 -54 -147 -25 3 5 -2 6 -10 3 -9 -4 -18 0 -22
10 -5 12 -10 13 -26 5 -14 -7 -23 -7 -33 1 -8 7 -18 9 -23 6 -5 -3 -23 -1 -41
4 -22 6 -31 5 -31 -3 0 -8 -3 -8 -8 -2 -9 13 -64 17 -57 4 4 -5 1 -9 -4 -9 -6
0 -11 5 -11 10 0 6 -9 10 -20 10 -11 0 -20 -4 -20 -10 0 -5 -6 -7 -14 -4 -8 3
-30 1 -49 -4 -31 -9 -35 -8 -30 6 4 10 2 13 -5 8 -6 -3 -13 -2 -17 3 -3 6 -13
7 -21 4 -13 -5 -13 -8 -2 -15 10 -7 9 -8 -5 -4 -52 17 -643 -316 -1075 -606
-419 -282 -874 -660 -1141 -949 l-71 -77 0 -8338 c0 -4585 1 -8339 3 -8340 2
-2 75 54 163 124 771 615 1770 1151 3020 1621 1477 554 3227 934 4874 1055
482 36 1056 49 1590 36 l215 -6 -257 -2 c-199 -1 -258 -5 -258 -14 0 -9 -3 -8
-10 2 -7 11 -13 6 -26 -25 -30 -69 -54 -205 -37 -205 6 0 25 -3 42 -6 24 -5
31 -3 31 9 0 13 20 27 39 27 4 0 16 -8 27 -17 11 -11 37 -19 64 -20 25 0 146
-4 270 -7 124 -3 266 -8 316 -9 l92 -3 11 38 c14 47 31 50 31 6 0 -63 21 -60
-411 -47 -671 20 -1502 -8 -2044 -68 -77 -8 -162 -17 -190 -19 -89 -6 -532
-61 -715 -89 -1472 -225 -2968 -637 -4145 -1143 -737 -316 -1260 -591 -1788
-938 -417 -275 -649 -460 -1047 -836 l-145 -138 -5 358 c-3 196 -5 4124 -5
8728 1 8141 1 8372 19 8399 11 16 114 124 230 240 518 518 1076 930 1884 1393
69 39 117 73 110 76 -7 3 -4 4 7 1 11 -2 31 3 45 11 14 9 17 13 8 10 -10 -3
-20 -1 -23 3 -2 5 6 12 19 15 18 4 23 11 19 26 -3 11 -1 20 5 20 6 0 18 7 26
16 9 8 16 11 16 4 0 -8 4 -8 13 0 6 6 30 24 52 40 22 16 46 35 53 40 7 6 17 8
24 4 7 -5 8 -3 3 6 -6 10 -4 12 8 7 10 -4 14 -2 11 7 -3 7 2 13 10 13 8 0 13
-4 10 -9 -3 -4 -1 -8 4 -8 5 0 12 9 15 20 3 11 11 20 19 20 10 0 9 -3 -2 -10
-9 -6 -10 -10 -3 -10 7 0 17 9 23 20 6 11 15 20 21 20 6 0 7 -4 4 -10 -3 -6 1
-7 9 -4 9 3 13 10 10 16 -3 5 0 8 7 7 8 -2 24 2 37 9 12 7 22 9 22 5 0 -4 5 0
11 10 5 9 15 17 22 17 8 0 6 -4 -3 -11 -8 -6 -10 -9 -5 -6 52 21 75 33 75 39
0 4 12 8 26 8 14 0 23 4 19 10 -3 6 3 10 14 10 27 0 52 11 46 20 -3 5 4 6 15
3 11 -3 20 0 20 6 0 5 7 8 16 4 8 -3 25 -1 37 5 26 12 89 36 100 38 4 1 9 3
12 4 3 1 8 3 13 5 4 1 20 7 35 13 16 7 33 10 38 6 5 -3 9 0 9 5 0 6 3 10 8 9
4 -1 30 4 57 10 44 11 77 17 123 21 7 0 10 6 6 13 -4 6 -3 8 4 4 6 -3 46 8 89
25 244 97 738 265 1103 374 974 292 2163 520 3270 629 158 16 191 19 260 25
41 3 120 7 175 8 91 3 97 2 65 -10z m117 -13 c-3 -3 -12 -4 -19 -1 -8 3 -5 6
6 6 11 1 17 -2 13 -5z m-213 -53 c16 -11 36 -17 45 -14 13 4 13 3 2 -5 -7 -5
-11 -14 -8 -19 3 -5 -6 -10 -19 -11 -15 -1 -23 2 -19 8 4 6 11 8 16 5 5 -4 9
-2 9 3 0 5 -16 17 -35 26 -19 9 -35 19 -35 21 0 10 16 4 44 -14z m2750 -137
c26 -25 20 -44 -13 -44 -37 0 -44 11 -25 38 18 26 18 26 38 6z m-1151 -1 c-23
-2 -64 -2 -90 0 -26 2 -7 3 42 3 50 0 71 -1 48 -3z m365 -10 c-54 -2 -142 -2
-195 0 -54 1 -10 3 97 3 107 0 151 -2 98 -3z m345 -10 c-13 -2 -35 -2 -50 0
-16 2 -5 4 22 4 28 0 40 -2 28 -4z m260 -10 c-7 -2 -19 -2 -25 0 -7 3 -2 5 12
5 14 0 19 -2 13 -5z m370 -20 c-7 -2 -19 -2 -25 0 -7 3 -2 5 12 5 14 0 19 -2
13 -5z m-14630 -10 c-7 -2 -21 -2 -30 0 -10 3 -4 5 12 5 17 0 24 -2 18 -5z
m14780 0 c-7 -2 -19 -2 -25 0 -7 3 -2 5 12 5 14 0 19 -2 13 -5z m-14996 -76
c31 -1 18 -17 -14 -17 -26 0 -26 0 -7 -21 14 -16 15 -23 7 -26 -7 -3 -13 -11
-13 -19 0 -14 -12 -18 -39 -14 -13 1 -13 -1 -2 -14 11 -14 11 -16 -5 -17 -11
-1 -22 -1 -26 0 -5 0 -8 -5 -8 -12 0 -19 -48 -69 -91 -95 -43 -26 -84 -30 -75
-7 3 8 2 14 -2 14 -24 -4 -52 3 -52 12 0 5 5 7 11 3 7 -4 10 -1 7 7 -3 8 -14
12 -24 11 -15 -3 -14 0 6 17 23 19 24 20 5 21 -15 0 -17 2 -6 9 10 6 10 10 1
13 -7 2 11 16 39 31 28 16 51 32 51 37 0 5 6 7 13 4 7 -2 25 6 40 20 14 13 28
21 31 18 3 -3 6 0 6 6 0 14 30 20 58 10 23 -8 32 6 10 16 -7 4 3 3 22 0 19 -3
45 -7 57 -7z m1498 -356 c-5 -13 -8 -13 -21 1 -13 13 -14 19 -3 37 l14 21 8
-22 c4 -12 5 -28 2 -37z m-21139 4 c6 -15 -12 -45 -27 -45 -11 0 -22 38 -14
50 9 15 35 12 41 -5z m15150 0 c6 -15 -12 -45 -27 -45 -11 0 -22 38 -14 50 9
15 35 12 41 -5z m15154 -4 c0 -22 -25 -45 -40 -36 -11 7 -14 38 -3 48 14 15
43 7 43 -12z m15151 6 c-1 -4 -1 -14 -1 -22 0 -17 -26 -20 -35 -5 -8 13 14 42
27 38 5 -2 9 -7 9 -11z m-6736 -7 c3 -5 -1 -10 -9 -10 -9 0 -16 5 -16 10 0 6
4 10 9 10 6 0 13 -4 16 -10z m-27815 -39 c21 -39 7 -101 -23 -101 -14 0 -39
72 -33 96 8 29 41 32 56 5z m15150 0 c13 -24 13 -71 0 -91 -7 -12 -13 -12 -27
-4 -13 8 -19 26 -21 63 -3 45 -1 51 17 51 11 0 25 -9 31 -19z m12184 -106 c6
-16 -3 -19 -28 -9 -22 8 -20 24 3 24 10 0 21 -7 25 -15z m-17149 -75 c0 -29
-32 -41 -41 -16 -9 24 4 48 23 44 12 -2 18 -12 18 -28z m90 -40 c3 -5 1 -10
-4 -10 -6 0 -11 5 -11 10 0 6 2 10 4 10 3 0 8 -4 11 -10z m10 -29 c3 -5 1 -12
-5 -16 -5 -3 -10 1 -10 9 0 18 6 21 15 7z m15 -51 c0 -19 -18 -19 -23 -1 -3
14 -1 18 9 14 8 -3 14 -9 14 -13z m7 -55 c0 -22 -14 -18 -20 4 -3 13 0 18 7
15 7 -3 13 -11 13 -19z m12 -165 c1 -79 -2 -120 -9 -120 -6 0 -8 -10 -4 -26 4
-17 2 -29 -7 -35 -11 -7 -10 -9 4 -9 15 0 18 -7 15 -47 -3 -42 -6 -48 -25 -47
-13 0 -24 -4 -25 -10 0 -6 -2 -15 -3 -21 -3 -11 -4 -20 -6 -32 0 -5 -5 -14
-11 -20 -6 -7 -7 -13 -3 -13 4 0 0 -11 -8 -24 -12 -18 -13 -26 -4 -35 9 -9 8
-11 -4 -6 -15 6 -17 3 -21 -44 -1 -11 -8 -17 -15 -14 -8 3 -13 -3 -13 -15 0
-12 -5 -24 -11 -27 -6 -4 -8 -14 -5 -22 4 -9 2 -11 -6 -7 -8 5 -9 2 -5 -9 3
-9 1 -19 -5 -23 -7 -4 -8 -3 -4 4 4 7 2 12 -3 12 -6 0 -11 -4 -11 -10 0 -5
-10 -19 -23 -32 -32 -33 -87 -105 -87 -114 0 -4 12 3 28 17 l27 24 -24 -27
c-13 -15 -28 -25 -35 -22 -11 4 -69 -48 -67 -60 2 -11 -24 -46 -33 -46 -5 0
-1 9 9 20 16 18 16 20 2 20 -17 0 -41 -33 -31 -43 3 -2 -9 -15 -27 -28 -18
-13 -29 -18 -26 -12 4 7 3 14 -3 18 -5 3 -10 2 -10 -4 0 -6 -11 -13 -25 -17
-17 -4 -25 -13 -25 -28 0 -17 -2 -18 -10 -6 -8 13 -10 13 -10 -1 0 -9 -11 -21
-25 -27 -15 -7 -25 -8 -25 -2 0 6 6 10 14 10 8 0 18 5 22 12 4 6 3 9 -2 7 -5
-3 -21 -11 -36 -19 -16 -7 -28 -20 -28 -28 0 -9 -6 -12 -16 -8 -8 3 -13 2 -9
-3 3 -5 -8 -12 -25 -16 -16 -4 -30 -11 -30 -17 0 -6 -6 -6 -15 2 -11 9 -15 10
-15 1 0 -8 -8 -10 -21 -6 -16 5 -19 4 -14 -6 6 -9 4 -11 -7 -6 -9 3 -20 1 -25
-4 -10 -10 -34 -16 -93 -24 -19 -3 -36 -9 -38 -15 -2 -5 -15 -7 -28 -4 -15 4
-24 2 -24 -5 0 -7 -28 -11 -82 -10 -56 0 -76 3 -63 9 18 8 17 9 -8 9 -19 1
-26 -3 -21 -11 5 -7 3 -8 -7 -2 -7 4 -32 8 -54 7 -22 -1 -45 3 -52 9 -7 5 -17
7 -23 3 -5 -3 -10 -2 -10 3 0 5 -11 8 -25 7 -14 -2 -25 1 -25 7 0 6 -9 8 -20
5 -13 -3 -18 -1 -13 6 4 6 0 8 -10 4 -9 -3 -19 -2 -22 3 -4 6 -12 10 -18 10
-7 0 -6 -4 3 -10 8 -5 10 -10 4 -10 -6 0 -17 6 -23 14 -7 8 -21 13 -32 11 -10
-2 -19 1 -19 7 0 5 -7 8 -15 4 -8 -3 -15 -2 -15 2 0 4 -4 13 -9 21 -8 13 -12
13 -27 0 -10 -8 -15 -9 -11 -2 4 6 3 14 -3 18 -6 4 -8 11 -4 16 4 6 15 4 29
-5 17 -11 25 -12 35 -3 10 9 11 9 6 0 -4 -7 -3 -13 3 -13 5 0 17 -3 26 -7 16
-5 15 -4 -1 15 -10 12 -33 27 -51 33 -18 6 -31 15 -28 20 6 9 -7 13 -39 9 -12
-1 -16 2 -11 11 5 7 4 10 -3 6 -14 -9 -43 3 -36 14 3 5 -1 6 -8 4 -8 -3 -22 2
-33 10 -19 16 -19 16 3 5 12 -6 22 -7 22 -3 0 4 -37 28 -80 52 -44 24 -78 46
-75 49 2 3 10 1 18 -4 7 -5 -1 3 -18 18 -16 15 -34 27 -40 27 -5 0 -1 -6 9
-14 11 -8 15 -15 9 -15 -16 0 -31 23 -28 43 2 9 -1 15 -6 11 -5 -3 -9 0 -9 6
0 6 -4 8 -10 5 -5 -3 -10 1 -10 10 0 11 -5 15 -15 12 -8 -4 -17 -1 -21 5 -4 7
-3 8 4 4 7 -4 12 -2 12 3 0 6 -7 11 -15 11 -8 0 -15 4 -15 8 0 5 -7 17 -16 28
-8 10 -12 13 -8 5 5 -9 3 -12 -5 -7 -6 4 -9 12 -5 17 3 5 -13 27 -36 48 -23
21 -41 41 -40 42 5 13 -18 49 -52 79 -34 30 -37 36 -19 36 12 0 21 -6 21 -14
0 -7 5 -10 10 -7 6 4 19 1 28 -6 9 -8 6 -1 -8 14 -21 25 -22 27 -5 21 11 -4
17 -4 13 0 -3 4 -14 9 -25 10 -10 2 -17 7 -16 12 1 5 -8 19 -20 32 -20 22 -20
23 -2 16 13 -4 8 4 -13 21 -18 15 -30 31 -27 36 3 4 -1 22 -10 38 -8 16 -12
37 -9 45 4 9 2 22 -3 29 -18 23 -34 69 -22 61 8 -4 8 0 0 15 -10 17 -9 22 3
27 8 3 17 12 20 20 3 8 2 13 -2 10 -4 -2 -8 3 -8 13 0 12 6 17 18 13 10 -2 18
1 18 7 0 7 5 9 10 6 6 -3 16 -3 23 2 17 11 80 12 94 1 7 -6 14 -5 18 2 5 7 15
-1 28 -22 20 -33 23 -44 30 -104 2 -16 7 -36 11 -42 4 -7 5 -16 1 -21 -3 -5
-1 -12 4 -15 5 -3 9 -21 9 -40 0 -48 12 -95 33 -136 11 -19 19 -43 19 -52 0
-10 4 -18 10 -18 5 0 7 -7 4 -15 -4 -8 1 -17 9 -21 9 -3 13 -12 10 -20 -3 -8
2 -21 12 -28 10 -7 15 -18 11 -24 -3 -5 -3 -12 1 -14 18 -7 82 -96 75 -103 -4
-4 0 -5 8 -3 19 7 70 -40 63 -58 -3 -8 0 -14 7 -14 6 0 8 5 5 10 -11 17 7 11
21 -7 7 -10 16 -18 21 -18 29 -2 71 -45 42 -45 -5 0 -7 4 -4 10 3 6 -1 7 -9 4
-26 -10 6 -33 38 -27 17 4 33 -1 45 -11 10 -9 20 -14 22 -12 2 2 10 -2 17 -10
11 -12 9 -14 -13 -14 -14 0 -25 -5 -25 -12 0 -6 3 -8 6 -5 4 3 16 0 28 -8 11
-8 25 -15 31 -15 5 0 4 4 -3 9 -10 6 -9 10 7 14 12 3 19 1 16 -4 -3 -4 6 -11
20 -15 14 -3 25 -11 25 -17 0 -8 4 -7 12 1 8 8 18 6 41 -10 17 -12 27 -16 22
-8 -6 9 -4 11 6 5 7 -5 26 -8 41 -7 18 2 31 -3 34 -13 4 -8 14 -15 24 -15 11
0 21 -4 25 -9 3 -6 23 -9 45 -9 22 0 37 4 34 9 -3 5 2 9 10 9 9 0 16 -3 16 -7
0 -12 84 -11 92 1 4 7 9 5 13 -5 5 -12 17 -15 62 -11 41 3 54 2 49 -7 -4 -6
-12 -9 -17 -6 -5 4 -9 1 -9 -5 0 -8 7 -9 18 -5 9 4 35 9 57 12 22 2 42 7 45
11 10 14 44 10 58 -6 9 -12 15 -13 18 -5 3 7 11 10 19 7 7 -3 16 -1 20 5 3 6
15 11 26 11 11 0 22 7 25 15 4 8 10 12 15 10 9 -6 69 21 69 31 0 3 -5 2 -12
-2 -7 -4 -8 -3 -4 4 4 6 14 8 23 5 12 -5 14 -3 8 7 -5 9 -4 11 4 6 6 -4 33 8
61 28 28 20 52 36 55 36 11 0 194 193 190 200 -3 5 3 14 14 19 22 12 125 207
116 221 -3 6 -2 10 4 10 10 0 30 64 52 170 8 36 14 124 14 197 0 97 3 129 11
122 8 -6 12 -53 13 -129z m-13018 86 c5 3 9 0 9 -6 0 -15 -23 -7 -26 8 -1 7 0
8 3 2 2 -5 9 -8 14 -4z m19632 -41 c-3 -9 -8 -14 -10 -11 -3 3 -2 9 2 15 9 16
15 13 8 -4z m-23398 -256 c8 -12 -13 -69 -25 -69 -4 0 -10 11 -12 24 -8 39 20
73 37 45z m3822 -10 c14 -14 5 -49 -12 -49 -16 0 -29 35 -20 50 8 13 18 13 32
-1z m10774 -136 c13 -16 12 -17 -3 -4 -17 13 -22 21 -14 21 2 0 10 -8 17 -17z
m1944 -148 c0 -11 -8 -21 -17 -23 -14 -3 -18 3 -18 23 0 20 4 26 18 23 9 -2
17 -12 17 -23z m181 -79 c-7 -29 -33 -35 -43 -10 -3 8 0 27 6 41 11 24 13 25
28 10 10 -10 13 -24 9 -41z m-1591 23 c-4 -5 1 -9 9 -9 8 0 17 -4 20 -9 4 -5
-4 -7 -16 -3 -16 4 -19 2 -13 -8 5 -9 4 -11 -4 -6 -6 4 -9 11 -6 16 3 5 1 11
-5 15 -6 4 -8 11 -4 16 3 5 10 7 15 3 5 -3 7 -10 4 -15z m6528 -30 c13 -20 2
-65 -18 -73 -25 -9 -48 36 -35 68 11 30 36 32 53 5z m-6529 -27 c3 -5 -1 -9
-9 -9 -8 0 -12 4 -9 9 3 4 7 8 9 8 2 0 6 -4 9 -8z m1442 -50 c-17 -16 -18 -16
-5 5 7 12 15 20 18 17 3 -2 -3 -12 -13 -22z m-1381 8 c3 -5 1 -10 -4 -10 -6 0
-11 5 -11 10 0 6 2 10 4 10 3 0 8 -4 11 -10z m1275 -14 c0 -2 -8 -10 -17 -17
-16 -13 -17 -12 -4 4 13 16 21 21 21 13z m-1195 -17 c11 -17 -1 -21 -15 -4 -8
9 -8 15 -2 15 6 0 14 -5 17 -11z m6165 -59 c0 -5 -2 -10 -4 -10 -3 0 -8 5 -11
10 -3 6 -1 10 4 10 6 0 11 -4 11 -10z m-6036 -36 c3 -8 2 -12 -4 -9 -6 3 -10
10 -10 16 0 14 7 11 14 -7z m1076 13 c0 -2 -10 -12 -22 -23 l-23 -19 19 23
c18 21 26 27 26 19z m-755 -107 c3 -5 1 -10 -4 -10 -6 0 -11 5 -11 10 0 6 2
10 4 10 3 0 8 -4 11 -10z m-7449 -35 c6 -25 -9 -55 -28 -55 -15 0 -26 44 -16
63 13 25 37 21 44 -8z m7908 9 c3 -8 2 -12 -4 -9 -6 3 -10 10 -10 16 0 14 7
11 14 -7z m7236 1 c10 -12 10 -21 1 -41 -13 -30 -35 -27 -39 5 -7 46 14 65 38
36z m-8310 -26 c0 -4 -7 -6 -15 -3 -8 4 -15 10 -15 15 0 4 7 6 15 3 8 -4 15
-10 15 -15z m1034 5 c3 -8 2 -12 -4 -9 -6 3 -10 10 -10 16 0 14 7 11 14 -7z
m-37 -5 c-9 -6 -14 -16 -11 -22 5 -8 2 -7 -7 1 -12 11 -12 14 1 22 8 5 20 10
25 10 6 -1 2 -5 -8 -11z m-122 -9 c-3 -5 -12 -10 -18 -10 -7 0 -6 4 3 10 19
12 23 12 15 0z m81 -17 c-10 -10 -19 5 -10 18 6 11 8 11 12 0 2 -7 1 -15 -2
-18z m-19907 -887 c20 -23 10 -71 -14 -71 -16 0 -21 8 -23 43 -3 45 13 57 37
28z m13461 -1700 c350 -13 619 -27 815 -42 1386 -103 2771 -401 4010 -864 260
-97 287 -109 283 -119 -83 -215 -104 -261 -118 -257 -8 2 -96 36 -195 74 -506
195 -1150 391 -1735 527 -690 160 -1403 270 -2142 330 -245 20 -563 23 -563 5
0 -2 -74 -11 -112 -13 -18 -1 -33 -6 -33 -12 0 -5 -5 -3 -10 5 -7 12 -10 12
-10 1 0 -9 -8 -11 -24 -7 -14 3 -28 1 -31 -5 -4 -5 -19 -9 -33 -8 -15 2 -32 1
-37 -2 -6 -3 -68 -6 -140 -8 -71 -2 -134 -6 -140 -10 -17 -11 -484 -8 -477 4
3 5 -1 4 -10 -3 -9 -7 -19 -9 -22 -4 -8 13 -125 13 -159 0 -22 -9 -31 -7 -47
7 -12 11 -39 19 -67 21 -54 3 -153 12 -198 19 -16 2 -45 5 -62 7 -18 1 -33 6
-33 10 0 12 -285 -1 -535 -23 -1004 -90 -2030 -293 -2974 -589 -106 -34 -195
-60 -196 -58 -11 13 -86 262 -82 271 8 21 459 158 877 267 935 243 2024 410
2975 455 72 4 148 8 170 10 22 3 114 8 205 11 91 4 166 7 167 8 5 4 538 -2
683 -8z m19570 -6 c162 -5 327 -12 365 -15 39 -3 142 -10 230 -15 536 -35
1229 -123 1695 -216 192 -38 209 -43 216 -70 7 -29 -2 -44 -27 -44 -18 0 -24
14 -21 52 2 19 -53 34 -88 25 -12 -3 -18 -1 -14 5 4 6 -4 8 -17 6 -13 -2 -23
-8 -22 -13 2 -15 -60 -12 -76 3 -10 9 -17 10 -27 1 -7 -6 -17 -8 -23 -5 -5 3
-20 0 -33 -7 -66 -34 -72 -76 -13 -95 60 -20 88 -50 81 -89 -3 -21 -1 -33 6
-33 6 0 9 -3 6 -6 -4 -3 -27 -2 -53 2 -28 4 -42 10 -35 14 20 12 -40 39 -65
29 l-20 -8 20 0 c11 -1 27 -6 35 -12 17 -12 22 -12 -240 27 -625 94 -1328 153
-1891 159 -244 3 -317 1 -361 -11 -68 -17 -155 -24 -404 -29 -105 -2 -198 -7
-207 -10 -10 -3 -23 -7 -31 -9 -8 -3 -17 1 -19 8 -3 8 -26 14 -59 15 -29 1
-66 4 -83 6 -66 10 -426 4 -598 -10 -1398 -116 -2600 -380 -3842 -844 -131
-50 -240 -89 -240 -88 -1 1 -25 60 -53 131 -39 98 -49 132 -39 138 43 27 569
216 844 303 1011 322 2020 533 3038 634 679 68 1402 93 2065 71z m2180 -304
c0 -3 -4 -8 -10 -11 -5 -3 -10 -1 -10 4 0 6 5 11 10 11 6 0 10 -2 10 -4z m414
-219 c-3 -9 -13 -17 -20 -17 -21 0 -29 27 -13 46 10 13 14 13 26 1 8 -7 11
-21 7 -30z m-301 -4 c-7 -2 -21 -2 -30 0 -10 3 -4 5 12 5 17 0 24 -2 18 -5z
m50 -10 c-7 -2 -19 -2 -25 0 -7 3 -2 5 12 5 14 0 19 -2 13 -5z m44 -9 c-3 -3
-12 -4 -19 -1 -8 3 -5 6 6 6 11 1 17 -2 13 -5z m1488 -224 c0 -33 -40 -41 -50
-11 -9 28 2 43 28 39 16 -2 22 -10 22 -28z m-36651 -716 c8 -22 7 -37 -4 -54
-9 -13 -11 -13 -20 0 -15 23 -12 70 4 70 8 0 17 -7 20 -16z m6736 -58 c0 -7
-7 -19 -15 -26 -19 -16 -41 1 -32 24 8 20 47 21 47 2z m15150 5 c0 -20 -13
-41 -25 -41 -18 0 -28 17 -21 35 6 16 46 21 46 6z m15144 0 c3 -4 -1 -17 -9
-27 -10 -15 -16 -16 -26 -7 -6 6 -9 19 -6 27 7 17 32 22 41 7z m-34556 -33
c17 -23 25 -78 12 -93 -29 -35 -70 3 -70 64 0 34 38 53 58 29z m15161 -34 c7
-25 7 -43 0 -55 -19 -36 -50 -19 -63 33 -9 37 2 58 30 58 18 0 25 -8 33 -36z
m-4209 -1377 c41 -3 134 -9 205 -12 879 -41 1724 -153 2580 -341 138 -30 266
-58 285 -63 712 -184 1236 -349 1761 -556 l146 -57 -54 -131 c-30 -73 -56
-133 -58 -135 -1 -1 -67 23 -146 53 -370 144 -836 299 -1244 413 -782 220
-1617 375 -2455 457 -496 48 -839 60 -915 32 -23 -9 -41 -11 -43 -6 -3 6 -8 6
-16 0 -7 -6 -48 -13 -91 -16 -44 -4 -87 -9 -95 -12 -41 -15 -293 -27 -525 -26
-292 1 -585 14 -655 27 -14 3 -54 8 -90 11 -36 4 -67 11 -70 16 -8 12 -310 3
-515 -16 -1060 -99 -2098 -307 -3052 -613 l-122 -39 -47 139 c-25 77 -44 141
-43 143 2 2 99 33 214 69 1026 320 2164 537 3270 622 110 9 220 17 245 20 25
2 70 7 100 10 209 20 1211 28 1430 11z m19680 -16 c85 -6 182 -13 215 -15 33
-3 123 -10 200 -16 471 -37 1132 -125 1535 -207 167 -33 238 -53 138 -39 -30
5 -55 3 -69 -4 -13 -7 -19 -8 -15 -2 3 6 1 14 -4 17 -18 11 -60 13 -54 3 3 -5
13 -7 21 -4 9 4 13 1 10 -6 -4 -15 -46 -17 -65 -4 -7 5 -16 6 -19 2 -4 -4 -2
-11 6 -15 10 -6 9 -10 -4 -15 -9 -3 -13 -10 -10 -16 9 -14 -8 -12 -25 3 -12
10 -12 9 -1 -5 7 -10 10 -18 5 -19 -5 0 0 -4 11 -9 18 -8 18 -9 2 -9 -10 -1
-25 6 -34 14 -8 8 -19 12 -25 9 -6 -4 -5 -10 3 -15 10 -6 8 -9 -8 -9 -14 0
-23 -6 -23 -15 0 -8 -4 -15 -10 -15 -5 0 -10 5 -10 11 0 5 -5 7 -11 3 -6 -3
-9 -17 -6 -30 2 -13 0 -21 -4 -18 -5 3 -6 -1 -3 -9 3 -9 14 -13 27 -11 15 3
17 2 7 -3 -23 -12 -23 -33 0 -33 11 0 39 -4 62 -10 24 -5 56 -12 72 -15 15 -3
26 -8 23 -11 -2 -3 -83 9 -178 25 -178 31 -529 81 -699 100 -428 49 -632 66
-1085 92 -202 11 -565 14 -612 5 -176 -34 -546 -49 -800 -32 -75 4 -92 3 -97
-9 -8 -22 -37 -18 -43 5 -5 19 -12 20 -227 16 -297 -6 -796 -52 -1251 -117
-1066 -151 -1998 -389 -2985 -763 -123 -46 -225 -84 -226 -83 -14 17 -103 262
-97 267 12 11 363 144 572 216 1352 470 2763 736 4266 804 240 11 1319 4 1525
-9z m1478 -24 c3 -28 -12 -57 -29 -57 -17 0 -30 50 -18 71 15 28 43 20 47 -14z
m-15151 7 c3 -8 1 -26 -5 -39 -16 -35 -42 -22 -42 21 0 28 4 34 20 34 11 0 23
-7 27 -16z m15850 -270 c-3 -3 -12 -4 -19 -1 -8 3 -5 6 6 6 11 1 17 -2 13 -5z
m-3608 -62 c15 -28 22 -86 12 -101 -12 -19 -46 -5 -59 25 -13 27 -16 77 -5 87
12 13 42 7 52 -11z m3418 -178 c-3 -3 -12 -4 -19 -1 -8 3 -5 6 6 6 11 1 17 -2
13 -5z m50 -10 c-3 -3 -12 -4 -19 -1 -8 3 -5 6 6 6 11 1 17 -2 13 -5z m56 -11
c-7 -2 -19 -2 -25 0 -7 3 -2 5 12 5 14 0 19 -2 13 -5z m417 -53 c0 -5 9 -18
21 -28 20 -20 20 -20 -27 -11 -58 11 -64 17 -40 35 23 16 46 18 46 4z m5061
-265 c10 -4 19 -11 19 -16 0 -5 4 -9 9 -9 5 0 7 9 4 20 -3 11 -1 20 5 20 6 0
19 3 29 6 13 4 14 3 5 -4 -10 -7 -5 -9 16 -8 17 1 28 5 25 10 -3 5 0 6 8 4 8
-3 13 -10 12 -16 -2 -8 5 -9 22 -2 18 7 23 6 19 -4 -3 -8 4 -16 15 -19 12 -3
19 -11 16 -19 -3 -7 0 -20 5 -28 9 -13 11 -13 19 0 6 8 12 12 15 10 2 -3 7
-590 10 -1305 4 -715 9 -1401 13 -1525 9 -287 9 -513 -1 -1380 -4 -388 -11
-1015 -14 -1393 -6 -568 -9 -689 -21 -696 -7 -5 -11 -14 -7 -20 5 -7 1 -9 -9
-5 -10 4 -14 2 -10 -8 3 -8 -1 -21 -10 -28 -8 -7 -15 -19 -15 -26 0 -8 -9 -14
-20 -14 -14 0 -20 -7 -20 -22 0 -14 -3 -18 -8 -12 -4 7 -27 11 -52 10 l-45 -1
-17 -115 c-9 -63 -17 -116 -17 -118 -1 -2 -6 0 -12 4 -7 4 -7 -1 1 -16 9 -16
9 -25 1 -33 -6 -6 -12 -25 -13 -41 -7 -93 -14 509 -16 1373 -1 541 -4 986 -7
990 -2 4 -5 113 -6 242 0 129 -5 241 -10 250 -12 24 -30 345 -30 560 -1 210 9
431 23 534 17 127 26 617 28 1540 1 819 10 1487 18 1363 2 -36 8 -48 23 -53z
m246 -37 c-3 -7 -5 -2 -5 12 0 14 2 19 5 13 2 -7 2 -19 0 -25z m-27663 -1974
c3 -9 4 -19 1 -24 -2 -4 62 -10 143 -14 81 -4 165 -9 187 -11 22 -2 83 -7 135
-10 216 -12 545 -36 695 -50 1240 -117 2468 -387 3570 -785 263 -96 340 -128
337 -142 -3 -13 -93 -251 -97 -256 -1 -1 -76 25 -166 59 -938 351 -1945 604
-2962 743 -551 76 -1396 146 -1472 122 -16 -5 -37 -11 -45 -14 -14 -5 -102
-13 -142 -13 -10 0 -23 -9 -28 -20 -12 -21 -54 -26 -66 -8 -4 7 -20 8 -42 4
-19 -4 -70 -8 -111 -10 -42 -1 -119 -7 -171 -11 -160 -14 -645 -8 -775 10 -16
2 -59 7 -95 10 -36 4 -85 9 -110 13 -25 3 -56 7 -70 9 -87 12 -218 11 -370 -2
-1071 -89 -2075 -283 -3076 -594 -106 -33 -196 -60 -202 -60 -5 0 -30 61 -54
136 -38 117 -42 137 -28 144 8 4 103 35 210 69 854 265 1778 459 2675 560 99
12 216 25 260 31 44 5 134 15 199 21 66 6 126 12 135 14 9 2 102 8 206 15 105
7 198 17 209 22 14 8 17 7 11 -2 -6 -10 1 -11 26 -7 19 4 257 10 531 13 l496
7 11 24 c12 26 36 30 45 7z m-1804 -61 c0 -29 -24 -40 -45 -20 -20 21 -19 54
3 66 21 12 42 -11 42 -46z m21565 -2 c728 -41 1501 -138 2135 -266 188 -38
243 -54 169 -50 -25 1 -55 8 -67 14 -14 7 -23 8 -27 1 -3 -5 -12 -10 -18 -10
-7 0 -6 4 3 10 8 5 11 10 7 10 -4 0 -18 -7 -30 -15 -15 -9 -42 -14 -80 -12
-31 2 -57 -1 -57 -6 0 -5 -7 -4 -16 3 -12 11 -15 11 -12 -1 2 -10 -8 -14 -36
-14 -24 0 -41 -6 -44 -14 -3 -8 0 -11 7 -7 6 4 11 2 11 -3 0 -6 -7 -11 -15
-11 -8 0 -14 -3 -14 -7 3 -19 -2 -33 -17 -47 -8 -9 -11 -16 -5 -16 7 0 7 -8 1
-26 -13 -34 -13 -34 12 -34 12 0 49 -7 82 -14 34 -8 87 -20 119 -26 32 -7 57
-14 55 -16 -2 -2 -74 9 -159 25 -638 121 -1423 208 -2119 236 -330 13 -363 13
-453 -1 -136 -20 -209 -27 -334 -28 -62 -1 -113 -4 -113 -8 0 -4 -12 -15 -26
-25 -25 -16 -27 -16 -43 3 -14 16 -31 19 -131 21 -63 2 -162 8 -220 13 -172
18 -254 18 -480 4 -1266 -83 -2469 -314 -3570 -688 -292 -100 -362 -124 -547
-194 -46 -17 -85 -27 -88 -23 -2 4 -27 65 -54 135 -43 112 -47 128 -33 133 9
3 40 15 67 26 28 10 160 58 295 107 1224 438 2574 715 3920 805 124 8 259 18
300 21 263 22 1199 19 1625 -5z m2211 -569 c-10 -2 -22 0 -28 6 -6 6 0 7 19 4
21 -5 23 -7 9 -10z m51 -8 c-3 -3 -12 -4 -19 -1 -8 3 -5 6 6 6 11 1 17 -2 13
-5z m50 -10 c-3 -3 -12 -4 -19 -1 -8 3 -5 6 6 6 11 1 17 -2 13 -5z m951 -186
c11 -11 17 -58 8 -58 -19 0 -56 22 -56 33 0 13 19 37 30 37 3 0 11 -5 18 -12z
m-31570 -340 c26 -26 6 -98 -27 -98 -23 0 -33 23 -25 58 12 48 30 62 52 40z
m-5563 -138 c9 -15 -4 -50 -20 -50 -19 0 -27 17 -20 40 7 21 30 27 40 10z
m15151 -5 c6 -16 -12 -45 -28 -45 -15 0 -21 30 -8 45 16 19 29 19 36 0z
m15150 0 c6 -16 -12 -45 -28 -45 -15 0 -21 30 -8 45 16 19 29 19 36 0z m15140
-1 c-5 -14 -4 -15 8 -5 12 10 13 9 9 -9 -7 -28 -18 -33 -33 -15 -10 12 -10 18
0 30 16 20 24 19 16 -1z m-34533 -61 c11 -37 2 -83 -16 -83 -25 0 -37 24 -37
73 0 44 2 48 22 45 15 -2 25 -13 31 -35z m30295 25 c5 -7 13 -28 17 -46 8 -37
-7 -62 -35 -62 -22 0 -30 19 -30 76 0 36 3 44 19 44 10 0 23 -6 29 -12z
m-35744 -253 c19 -29 14 -45 -14 -45 -19 0 -30 19 -30 51 0 27 25 24 44 -6z
m-572 -488 c-7 -8 -9 -16 -6 -19 3 -3 1 -9 -5 -13 -6 -3 -11 -1 -11 5 0 7 -7
10 -15 6 -9 -3 -15 0 -15 8 0 7 10 12 23 12 16 -1 22 4 20 18 -1 13 2 15 10 7
7 -7 7 -14 -1 -24z m-446 -2 c7 -17 -14 -75 -26 -75 -20 0 -26 60 -8 78 16 16
27 15 34 -3z m354 -494 c0 -6 -4 -13 -10 -16 -5 -3 -10 1 -10 9 0 9 5 16 10
16 6 0 10 -4 10 -9z m7910 -196 c16 -19 5 -65 -15 -65 -23 0 -41 46 -25 65 16
19 24 19 40 0z m15154 -11 c8 -20 -12 -56 -27 -51 -7 2 -13 18 -15 35 -3 26 0
32 16 32 11 0 23 -7 26 -16z m-27266 -926 c7 -7 12 -27 12 -46 0 -29 -3 -33
-22 -30 -17 2 -24 11 -26 31 -6 50 11 70 36 45z m4012 -697 c13 -26 13 -68 -2
-77 -15 -10 -38 24 -38 56 0 43 22 54 40 21z m37134 -6 c-4 -8 -10 -15 -15
-15 -4 0 -6 7 -3 15 4 8 10 15 15 15 4 0 6 -7 3 -15z m-35990 -34 c21 -23 14
-41 -15 -41 -22 0 -34 22 -25 45 7 20 19 19 40 -4z m35887 -21 c5 0 9 -5 9
-10 0 -6 -18 -9 -40 -8 -22 2 -40 6 -40 10 0 9 32 17 48 12 8 -2 18 -4 23 -4z
m-36884 -382 c-3 -8 -6 -5 -6 6 -1 11 2 17 5 13 3 -3 4 -12 1 -19z m8 -518 c3
-5 2 -10 -4 -10 -5 0 -13 5 -16 10 -3 6 -2 10 4 10 5 0 13 -4 16 -10z m45
-230 c13 -24 6 -40 -17 -40 -10 0 -14 6 -10 20 3 11 1 20 -5 20 -5 0 -6 5 -3
10 10 16 23 12 35 -10z m-84 -57 c18 -25 18 -72 -1 -80 -40 -15 -74 65 -37 86
23 14 23 14 38 -6z m132 -224 c-3 -8 -7 -3 -11 10 -4 17 -3 21 5 13 5 -5 8
-16 6 -23z m639 -231 c-3 -8 -6 -5 -6 6 -1 11 2 17 5 13 3 -3 4 -12 1 -19z
m-23 -32 c-3 -15 -8 -25 -11 -23 -2 3 -1 17 3 31 3 15 8 25 11 23 2 -3 1 -17
-3 -31z m-451 -80 c7 -16 -2 -56 -12 -56 -16 0 -28 23 -23 46 5 26 27 33 35
10z m28457 -362 c0 -2 -9 -4 -20 -4 -11 0 -20 4 -20 9 0 5 9 7 20 4 11 -3 20
-7 20 -9z m237 0 c-7 -7 -158 -6 -165 1 -3 3 34 5 83 5 49 0 86 -3 82 -6z
m181 -11 c-15 -2 -42 -2 -60 0 -18 2 -6 4 27 4 33 0 48 -2 33 -4z m185 -10
c-13 -2 -35 -2 -50 0 -16 2 -5 4 22 4 28 0 40 -2 28 -4z m130 -10 c-7 -2 -21
-2 -30 0 -10 3 -4 5 12 5 17 0 24 -2 18 -5z m-834 -99 c24 -31 26 -53 8 -78
-12 -16 -16 -17 -35 -5 -27 17 -42 57 -31 87 11 29 33 28 58 -4z m2006 -14 c3
-5 2 -10 -4 -10 -5 0 -13 5 -16 10 -3 6 -2 10 4 10 5 0 13 -4 16 -10z m259
-85 c7 -26 -8 -65 -24 -65 -17 0 -37 40 -32 65 6 35 47 35 56 0z m-1003 -80
c-2 -5 -7 -3 -9 4 -4 11 -6 11 -14 0 -7 -12 -9 -11 -7 1 1 8 1 22 0 30 -1 13
-2 13 -11 0 -5 -8 -10 -10 -10 -4 0 22 14 23 35 1 12 -12 19 -26 16 -32z
m-691 31 c8 -2 -19 -4 -60 -5 -41 0 -80 3 -87 7 -11 7 113 5 147 -2z m147 -13
c-20 -2 -52 -2 -70 0 -17 2 0 4 38 4 39 0 53 -2 32 -4z m583 3 c0 -3 -4 -8
-10 -11 -5 -3 -10 -1 -10 4 0 6 5 11 10 11 6 0 10 -2 10 -4z m-452 -13 c-10
-2 -28 -2 -40 0 -13 2 -5 4 17 4 22 1 32 -1 23 -4z m-33374 -27 c7 -27 -1 -56
-15 -56 -12 0 -23 46 -15 65 8 23 23 18 30 -9z m33514 17 c-10 -2 -28 -2 -40
0 -13 2 -5 4 17 4 22 1 32 -1 23 -4z m109 -9 c-3 -3 -12 -4 -19 -1 -8 3 -5 6
6 6 11 1 17 -2 13 -5z m-26893 -53 c9 -14 -4 -41 -19 -41 -18 0 -28 17 -21 35
6 17 32 20 40 6z m15150 0 c10 -16 -5 -41 -25 -41 -19 0 -27 29 -12 43 9 10
31 9 37 -2z m15150 0 c10 -16 -5 -41 -25 -41 -19 0 -27 29 -12 43 9 10 31 9
37 -2z m-34543 -71 c12 -41 0 -80 -25 -80 -35 0 -58 86 -32 113 23 23 44 11
57 -33z m34019 -105 c0 -25 -23 -35 -35 -15 -10 16 2 40 20 40 9 0 15 -9 15
-25z m-17075 -1305 c7 -23 -12 -63 -28 -57 -7 2 -13 20 -15 40 -3 31 0 37 17
37 11 0 22 -9 26 -20z m12420 -1150 c18 -8 18 -9 -5 -10 -14 -1 -82 -1 -152
-1 -95 0 -128 -3 -128 -12 0 -8 -4 -7 -10 3 -8 13 8 16 118 20 70 3 134 7 142
7 8 1 24 -2 35 -7z m195 0 c0 -5 -5 -10 -11 -10 -5 0 -7 5 -4 10 3 6 8 10 11
10 2 0 4 -4 4 -10z m305 3 c-147 -7 -295 -7 -295 0 0 4 80 6 178 5 97 -1 150
-3 117 -5z m92 1 c-3 -3 -12 -4 -19 -1 -8 3 -5 6 6 6 11 1 17 -2 13 -5z m-920
-15 c-12 -7 -180 -13 -202 -8 -13 3 127 15 177 15 21 0 32 -3 25 -7z m2037
-34 c-4 -8 -7 -15 -9 -15 -2 0 -5 7 -9 15 -3 9 0 15 9 15 9 0 12 -6 9 -15z
m7100 -41 c3 -8 2 -12 -4 -9 -6 3 -10 10 -10 16 0 14 7 11 14 -7z m-8110 -43
c32 -35 -3 -89 -41 -65 -32 20 -39 41 -19 63 24 26 38 26 60 2z m2125 -13 c9
-25 -3 -48 -24 -48 -19 0 -27 28 -15 51 14 25 29 24 39 -3z m-509 8 c0 -11
-19 -15 -25 -6 -3 5 1 10 9 10 9 0 16 -2 16 -4z m-1335 -46 c3 -5 1 -10 -4
-10 -6 0 -11 5 -11 10 0 6 2 10 4 10 3 0 8 -4 11 -10z m605 -39 c0 -25 -11
-33 -26 -20 -10 8 -11 16 -3 30 12 22 29 16 29 -10z m-537 -58 c-24 -2 -62 -2
-85 0 -24 2 -5 4 42 4 47 0 66 -2 43 -4z m480 -20 c-7 -2 -19 -2 -25 0 -7 3
-2 5 12 5 14 0 19 -2 13 -5z m174 -9 c-3 -3 -12 -4 -19 -1 -8 3 -5 6 6 6 11 1
17 -2 13 -5z m5126 -995 c-5 -5 -9 3 -11 19 -1 24 0 25 9 9 7 -11 7 -23 2 -28z
m27 -4 c0 -8 -4 -15 -10 -15 -5 0 -7 7 -4 15 4 8 8 15 10 15 2 0 4 -7 4 -15z
m17 -7 c-3 -8 -6 -5 -6 6 -1 11 2 17 5 13 3 -3 4 -12 1 -19z m-39572 -1729 c0
-15 -7 -25 -18 -27 -22 -4 -33 24 -17 43 18 21 35 13 35 -16z m15155 14 c0
-12 -22 -43 -31 -43 -16 0 -22 29 -9 45 10 12 40 11 40 -2z m15150 -1 c0 -5
-6 -17 -14 -28 -11 -15 -17 -16 -27 -7 -16 16 -4 43 21 43 11 0 20 -4 20 -8z
m15148 -14 c-4 -27 -23 -34 -32 -13 -8 21 1 35 20 35 10 0 14 -8 12 -22z
m-34554 -45 c0 -12 3 -20 8 -17 15 10 8 -44 -8 -57 -14 -11 -18 -10 -30 6 -8
10 -14 36 -14 58 0 34 2 38 23 35 15 -2 22 -10 21 -25z m1806 -1408 c15 -18 5
-65 -15 -65 -23 0 -38 36 -25 60 13 24 23 25 40 5z m15143 -2 c-7 -2 -19 -2
-25 0 -7 3 -2 5 12 5 14 0 19 -2 13 -5z m7 -42 c-12 -23 -25 -27 -35 -11 -3 5
0 7 9 4 9 -3 17 3 21 16 4 12 9 19 12 17 2 -3 0 -15 -7 -26z m-27262 -903 c7
-7 12 -25 12 -40 0 -35 -35 -40 -44 -5 -14 52 2 75 32 45z m6987 -3238 c7 -12
-12 -50 -26 -50 -13 0 -22 27 -15 45 6 17 32 20 41 5z m15150 0 c7 -12 -12
-50 -26 -50 -13 0 -22 27 -15 45 6 17 32 20 41 5z m15150 0 c3 -5 1 -19 -6
-31 -10 -19 -12 -20 -26 -6 -9 9 -13 23 -10 31 7 18 32 21 42 6z m-34545 -70
c8 -28 8 -46 0 -60 -20 -37 -51 -21 -64 33 -10 42 1 67 29 67 20 0 26 -7 35
-40z m15150 0 c8 -28 8 -46 0 -60 -20 -37 -51 -21 -64 33 -10 42 1 67 29 67
20 0 26 -7 35 -40z m-13352 -1421 c3 -27 -20 -55 -38 -44 -5 3 -10 22 -10 41
0 31 3 35 23 32 15 -2 23 -11 25 -29z m15150 -5 c5 -47 -42 -60 -48 -14 -6 39
0 51 23 48 17 -2 23 -11 25 -34z m-20286 -4150 c10 -9 -4 -44 -18 -44 -17 0
-27 17 -20 35 5 15 28 20 38 9z m15150 0 c10 -9 -4 -44 -18 -44 -17 0 -27 17
-20 35 5 15 28 20 38 9z m15152 -3 c3 -4 -1 -17 -9 -27 -16 -23 -40 -7 -29 19
7 18 29 23 38 8z m15160 0 c3 -4 -1 -17 -9 -27 -16 -23 -40 -7 -29 19 7 18 29
23 38 8z"/>
<path d="M20990 34250 c0 -5 10 -15 23 -21 22 -12 22 -12 3 10 -21 23 -26 26
-26 11z"/>
<path d="M21103 34133 c-7 -3 -13 -9 -13 -14 0 -6 4 -8 9 -4 6 3 14 -3 20 -12
7 -13 13 -15 21 -7 13 13 -18 44 -37 37z"/>
<path d="M21210 34037 c0 -8 11 -19 25 -25 30 -14 26 6 -5 26 -16 10 -20 10
-20 -1z"/>
<path d="M22021 34034 c-17 -20 -12 -24 17 -13 13 5 20 13 17 19 -8 14 -18 12
-34 -6z"/>
<path d="M6900 23535 c0 -23 3 -27 10 -15 8 12 10 12 10 1 0 -8 3 -12 6 -8 3
3 -1 16 -10 29 l-16 22 0 -29z"/>
<path d="M7101 22824 c0 -11 3 -14 6 -6 3 7 2 16 -1 19 -3 4 -6 -2 -5 -13z"/>
<path d="M6365 19520 c3 -5 8 -10 11 -10 2 0 4 5 4 10 0 6 -5 10 -11 10 -5 0
-7 -4 -4 -10z"/>
<path d="M6367 19464 c-4 -4 -7 -14 -7 -23 0 -11 3 -12 11 -4 6 6 10 16 7 23
-2 6 -7 8 -11 4z"/>
<path d="M6430 19420 c0 -11 4 -20 9 -20 5 0 7 9 4 20 -3 11 -7 20 -9 20 -2 0
-4 -9 -4 -20z"/>
<path d="M6501 19334 c0 -11 3 -14 6 -6 3 7 2 16 -1 19 -3 4 -6 -2 -5 -13z"/>
<path d="M6970 19309 c0 -11 4 -18 10 -14 5 3 7 12 3 20 -7 21 -13 19 -13 -6z"/>
<path d="M6890 19174 c0 -8 5 -12 10 -9 6 3 10 10 10 16 0 5 -4 9 -10 9 -5 0
-10 -7 -10 -16z"/>
<path d="M6859 19163 c-13 -16 -12 -17 4 -4 16 13 21 21 13 21 -2 0 -10 -8
-17 -17z"/>
<path d="M33220 15556 c0 -7 40 -14 44 -7 3 4 -6 8 -20 9 -13 1 -24 0 -24 -2z"/>
<path d="M32980 35980 c0 -5 5 -10 11 -10 5 0 7 5 4 10 -3 6 -8 10 -11 10 -2
0 -4 -4 -4 -10z"/>
<path d="M33075 35760 c3 -5 11 -10 16 -10 6 0 7 5 4 10 -3 6 -11 10 -16 10
-6 0 -7 -4 -4 -10z"/>
<path d="M21131 33904 c0 -11 3 -14 6 -6 3 7 2 16 -1 19 -3 4 -6 -2 -5 -13z"/>
<path d="M22239 33863 c-13 -15 -12 -15 9 -4 23 12 28 21 13 21 -5 0 -15 -7
-22 -17z"/>
<path d="M21750 33760 c0 -5 5 -10 10 -10 6 0 10 5 10 10 0 6 -4 10 -10 10 -5
0 -10 -4 -10 -10z"/>
<path d="M21913 33763 c-7 -2 -13 -10 -13 -16 0 -8 3 -8 11 0 6 6 18 9 27 6
10 -4 13 -2 8 5 -8 13 -13 14 -33 5z"/>
<path d="M21232 33744 c-14 -16 -5 -18 17 -5 7 5 9 11 5 14 -5 3 -15 -1 -22
-9z"/>
<path d="M21816 33728 c3 -4 11 -5 19 -1 21 7 19 12 -4 10 -11 0 -18 -5 -15
-9z"/>
<path d="M21265 33721 c22 -11 62 -14 53 -5 -4 3 -21 7 -40 10 -26 3 -29 2
-13 -5z"/>
<path d="M21363 33698 c22 -6 42 -7 47 -2 5 5 -12 10 -38 11 l-47 1 38 -10z"/>
<path d="M21433 33683 c9 -2 25 -2 35 0 9 3 1 5 -18 5 -19 0 -27 -2 -17 -5z"/>
<path d="M21558 33673 c34 -2 88 -2 120 0 31 2 3 3 -63 3 -66 0 -92 -1 -57 -3z"/>
<path d="M37386 30918 c3 -4 9 -8 15 -8 5 0 9 4 9 8 0 5 -7 9 -15 9 -8 0 -12
-4 -9 -9z"/>
<path d="M37053 30793 c-7 -3 -13 -11 -13 -19 0 -9 -4 -13 -9 -10 -5 4 -8 -2
-7 -11 2 -12 12 -18 29 -19 15 -1 24 2 22 7 -3 4 -15 5 -28 2 -20 -5 -19 -3 7
19 27 23 27 41 -1 31z"/>
<path d="M36980 30750 c0 -6 7 -10 15 -10 8 0 15 2 15 4 0 2 -7 6 -15 10 -8 3
-15 1 -15 -4z"/>
<path d="M37140 27765 c-8 -9 -8 -15 -2 -15 12 0 26 19 19 26 -2 2 -10 -2 -17
-11z"/>
<path d="M37135 27731 c-3 -5 8 -9 24 -9 17 1 28 5 25 10 -7 11 -41 10 -49 -1z"/>
<path d="M43041 20874 c0 -11 3 -14 6 -6 3 7 2 16 -1 19 -3 4 -6 -2 -5 -13z"/>
<path d="M43075 20870 c4 -6 11 -8 16 -5 14 9 11 15 -7 15 -8 0 -12 -5 -9 -10z"/>
<path d="M46905 1371 c-3 -5 -2 -12 3 -15 5 -3 9 1 9 9 0 17 -3 19 -12 6z"/>
</g>
</svg>
